<svg width="65" height="49" viewBox="0 0 65 49" fill="none" xmlns="http://www.w3.org/2000/svg">
<path d="M60.9375 28.5625C60.9375 18.3745 54.6813 9.65664 45.806 6.01309L40.625 16.375V2.15625C40.625 1.61753 40.411 1.10087 40.0301 0.71994C39.6491 0.339006 39.1325 0.125 38.5938 0.125H26.4062C25.8675 0.125 25.3509 0.339006 24.9699 0.71994C24.589 1.10087 24.375 1.61753 24.375 2.15625V16.375L19.194 6.01309C10.3187 9.65664 4.0625 18.3745 4.0625 28.5625V36.6875H60.9375V28.5625ZM62.9688 40.75H2.03125C1.49253 40.75 0.975873 40.964 0.594939 41.3449C0.214006 41.7259 0 42.2425 0 42.7812L0 46.8438C0 47.3825 0.214006 47.8991 0.594939 48.2801C0.975873 48.661 1.49253 48.875 2.03125 48.875H62.9688C63.5075 48.875 64.0241 48.661 64.4051 48.2801C64.786 47.8991 65 47.3825 65 46.8438V42.7812C65 42.2425 64.786 41.7259 64.4051 41.3449C64.0241 40.964 63.5075 40.75 62.9688 40.75Z" fill="#5E6C84"/>
</svg>
